<?xml version="1.0" encoding="UTF-8"?>
<svg id="_레이어_1" data-name="레이어 1" xmlns="http://www.w3.org/2000/svg" viewBox="0 0 40 28">
  <defs>
    <style>
      .cls-1 {
        fill: #fefefe;
        stroke-width: 0px;
      }
    </style>
  </defs>
  <path class="cls-1" d="M9.25,14h-3c-.69,0-1.25.56-1.25,1.25,0,1.52,1.23,2.75,2.75,2.75h3c.69,0,1.25-.56,1.25-1.25,0-1.52-1.23-2.75-2.75-2.75ZM10.75,17h-3c-.96,0-1.75-.79-1.75-1.75,0-.14.11-.25.25-.25h3c.96,0,1.75.79,1.75,1.75,0,.14-.11.25-.25.25Z"/>
  <path class="cls-1" d="M33.75,14h-3c-1.52,0-2.75,1.23-2.75,2.75,0,.69.56,1.25,1.25,1.25h3c1.52,0,2.75-1.23,2.75-2.75,0-.69-.56-1.25-1.25-1.25ZM32.25,17h-3c-.14,0-.25-.11-.25-.25,0-.96.79-1.75,1.75-1.75h3c.14,0,.25.11.25.25,0,.96-.79,1.75-1.75,1.75Z"/>
  <path class="cls-1" d="M38.5,7h-2c-.81,0-1.47.7-1.5,1.57l-2-5.39c-.71-1.9-2.51-3.18-4.49-3.18H11.48c-1.98,0-3.78,1.28-4.49,3.18l-2,5.39c-.03-.87-.68-1.57-1.5-1.57H1.5c-.83,0-1.5.73-1.5,1.62,0,1.31.97,2.38,2.17,2.38h1.93l-.73,1.96c-.25.7-.37,1.44-.37,2.19v10.93c0,1.06.87,1.93,1.93,1.93h2.14c1.06,0,1.93-.87,1.93-1.93v-2.07h22v2.07c0,1.06.87,1.93,1.93,1.93h2.14c1.06,0,1.93-.87,1.93-1.93v-10.93c0-.75-.12-1.48-.37-2.19l-.72-1.95h1.93c1.2,0,2.17-1.07,2.17-2.38,0-.9-.67-1.62-1.5-1.62ZM4,10h-1.83c-.64,0-1.17-.62-1.17-1.38,0-.34.23-.62.5-.62h2c.27,0,.5.29.5.62v1.38ZM7.93,3.53c.56-1.51,1.99-2.53,3.55-2.53h17.04c1.56,0,2.99,1.02,3.55,2.53l2.49,6.72-.77.27c-.68.23-1.38.35-2.1.35H8.3c-.71,0-1.42-.12-2.1-.35l-.77-.27,2.49-6.72ZM8,26.07c0,.51-.42.93-.93.93h-2.14c-.51,0-.93-.42-.93-.93v-2.33c.28.16.59.26.93.26h3.07v2.07ZM35.07,27h-2.14c-.51,0-.93-.42-.93-.93v-2.07h3.07c.34,0,.66-.1.93-.26v2.33c0,.51-.42.93-.93.93ZM36,18.93v3.08c0,.54-.42.98-.93.98H4.93c-.52,0-.93-.44-.93-.98v-6.87c0-.63.11-1.26.31-1.85l.78-2.11.79.27c.78.27,1.6.41,2.42.41h23.4c.83,0,1.64-.14,2.42-.41l.79-.27.78,2.1c.21.6.31,1.22.31,1.86v3.79ZM37.83,10h-1.83v-1.38c0-.34.22-.62.5-.62h2c.28,0,.5.28.5.62,0,.76-.52,1.38-1.17,1.38Z"/>
</svg>