<?xml version="1.0" encoding="UTF-8"?>
<svg id="_레이어_1" data-name="레이어 1" xmlns="http://www.w3.org/2000/svg" viewBox="0 0 130 130">
  <defs>
    <style>
      .cls-1 {
        fill: #0475f0;
      }

      .cls-1, .cls-2 {
        stroke-width: 0px;
      }

      .cls-2 {
        fill: #fff;
      }
    </style>
  </defs>
  <path class="cls-1" d="M97.11,92.42c-3.79,0-5.62-2.98-7.08-5.37-1.35-2.2-2.26-3.55-3.85-3.55s-2.5,1.35-3.85,3.55c-1.47,2.39-3.29,5.37-7.08,5.37s-5.62-2.98-7.08-5.37c-1.35-2.2-2.26-3.55-3.85-3.55s-2.5,1.35-3.85,3.55c-1.47,2.39-3.29,5.37-7.08,5.37s-5.61-2.98-7.08-5.37c-1.35-2.2-2.25-3.55-3.84-3.55s-2.5,1.35-3.84,3.55c-1.47,2.39-3.29,5.37-7.08,5.37s-5.61-2.98-7.08-5.37c-.81-1.32-1.57-2.56-2.49-3.16-.88-.57-1.14-1.76-.57-2.65.57-.89,1.74-1.15,2.63-.58,1.64,1.07,2.67,2.74,3.66,4.37,1.35,2.2,2.25,3.55,3.84,3.55s2.5-1.35,3.84-3.55c1.47-2.39,3.29-5.37,7.08-5.37s5.61,2.98,7.08,5.37c1.35,2.2,2.25,3.55,3.84,3.55s2.5-1.35,3.85-3.55c1.47-2.39,3.29-5.37,7.08-5.37s5.62,2.98,7.08,5.37c1.35,2.2,2.26,3.55,3.85,3.55s2.5-1.35,3.85-3.55c1.47-2.39,3.29-5.37,7.08-5.37s5.62,2.98,7.08,5.37c1.35,2.2,2.26,3.55,3.85,3.55s2.5-1.35,3.85-3.55c1.01-1.64,2.15-3.51,3.97-4.55.91-.53,2.07-.2,2.59.72.52.92.2,2.09-.71,2.62-.98.56-1.77,1.86-2.62,3.23-1.47,2.39-3.29,5.37-7.08,5.37Z"/>
  <path class="cls-1" d="M63.12,74.03c-4.29,0-7.79-3.53-7.79-7.87s3.49-7.87,7.79-7.87,7.79,3.53,7.79,7.87-3.49,7.87-7.79,7.87ZM63.12,62.14c-2.2,0-3.99,1.81-3.99,4.03s1.79,4.03,3.99,4.03,3.99-1.81,3.99-4.03-1.79-4.03-3.99-4.03Z"/>
  <path class="cls-1" d="M70.92,52.67c-3.19,0-5.79-2.62-5.79-5.84s2.6-5.84,5.79-5.84,5.79,2.62,5.79,5.84-2.6,5.84-5.79,5.84ZM70.92,44.83c-1.09,0-1.98.9-1.98,2s.89,2,1.98,2,1.98-.9,1.98-2-.89-2-1.98-2Z"/>
  <path class="cls-1" d="M59.38,38.58c-.12,0-.24,0-.37-.01-3.84-.2-6.81-3.52-6.61-7.4.2-3.88,3.5-6.89,7.33-6.68,1.86.1,3.57.92,4.82,2.32,1.25,1.4,1.88,3.2,1.79,5.08-.1,1.88-.91,3.61-2.29,4.87-1.29,1.18-2.94,1.82-4.67,1.82ZM59.37,28.32c-1.68,0-3.08,1.33-3.17,3.04-.09,1.77,1.26,3.28,3.01,3.37.85.04,1.66-.25,2.29-.82.63-.57,1-1.36,1.04-2.22h0c.04-.85-.25-1.68-.81-2.31-.57-.64-1.35-1.01-2.19-1.05-.06,0-.11,0-.16,0Z"/>
  <path class="cls-2" d="M82.3,20.59h-35.46c-5.62,0-10.19-4.62-10.19-10.29S41.22,0,46.84,0h35.46c5.62,0,10.19,4.62,10.19,10.29s-4.57,10.29-10.19,10.29ZM46.84,3.84c-3.52,0-6.39,2.89-6.39,6.45s2.87,6.45,6.39,6.45h35.46c3.52,0,6.39-2.89,6.39-6.45s-2.87-6.45-6.39-6.45h-35.46Z"/>
  <path class="cls-2" d="M120.82,130H9.18c-3.31,0-6.28-1.73-7.94-4.63-1.66-2.9-1.66-6.36,0-9.26L43.08,42.92v-24.26c0-1.06.85-1.92,1.9-1.92h39.19c1.05,0,1.9.86,1.9,1.92v22.76l42.69,74.69h0c1.66,2.9,1.66,6.36,0,9.26-1.66,2.9-4.62,4.63-7.94,4.63ZM46.88,20.59v22.85c0,.34-.09.67-.25.96L4.54,118.03c-.97,1.7-.97,3.72,0,5.42.97,1.7,2.71,2.71,4.64,2.71h111.64c1.94,0,3.67-1.01,4.64-2.71.97-1.7.97-3.72,0-5.42l-42.95-75.14c-.17-.29-.26-.62-.26-.96v-21.35h-35.38Z"/>
</svg>