<?xml version="1.0" encoding="UTF-8"?>
<svg id="_레이어_1" data-name="레이어 1" xmlns="http://www.w3.org/2000/svg" viewBox="0 0 130 130">
  <defs>
    <style>
      .cls-1 {
        fill: #0475f0;
      }

      .cls-1, .cls-2 {
        stroke-width: 0px;
      }

      .cls-2 {
        fill: #fff;
      }
    </style>
  </defs>
  <path class="cls-1" d="M12.76,111.1c-1.04,0-1.89-.85-1.89-1.89v-46.36c0-1.05.85-1.89,1.89-1.89s1.89.85,1.89,1.89v46.36c0,1.05-.85,1.89-1.89,1.89Z"/>
  <path class="cls-1" d="M75.94,119.52H20.71c-1.04,0-1.89-.85-1.89-1.89s.85-1.89,1.89-1.89h55.23c1.04,0,1.89.85,1.89,1.89s-.85,1.89-1.89,1.89Z"/>
  <path class="cls-1" d="M103.06,66.23c-1.04,0-1.89-.85-1.89-1.89V27.1c0-1.05.85-1.89,1.89-1.89s1.89.85,1.89,1.89v37.24c0,1.05-.85,1.89-1.89,1.89Z"/>
  <path class="cls-1" d="M95.73,21.04h-50.24c-1.04,0-1.89-.85-1.89-1.89s.85-1.89,1.89-1.89h50.24c1.04,0,1.89.85,1.89,1.89s-.85,1.89-1.89,1.89Z"/>
  <path class="cls-1" d="M13.33,126.16c-5.11,0-9.26-4.17-9.26-9.29s4.16-9.29,9.26-9.29,9.26,4.17,9.26,9.29-4.16,9.29-9.26,9.29ZM13.33,111.36c-3.03,0-5.49,2.47-5.49,5.51s2.46,5.51,5.49,5.51,5.49-2.47,5.49-5.51-2.46-5.51-5.49-5.51Z"/>
  <path class="cls-1" d="M103.06,28.44c-5.11,0-9.26-4.17-9.26-9.29s4.16-9.3,9.26-9.3,9.26,4.17,9.26,9.3-4.16,9.29-9.26,9.29ZM103.06,13.64c-3.03,0-5.49,2.47-5.49,5.51s2.46,5.51,5.49,5.51,5.49-2.47,5.49-5.51-2.46-5.51-5.49-5.51Z"/>
  <path class="cls-2" d="M26.71,38.19c-1.85,0-3.66-.45-5.38-1.32-5.28-2.7-8.69-9.02-8.69-16.1,0-9.61,6.31-17.43,14.07-17.43s14.07,7.82,14.07,17.43c0,7.08-3.41,13.4-8.69,16.1-1.72.88-3.53,1.32-5.38,1.32ZM26.71,7.13c-5.68,0-10.29,6.12-10.29,13.64,0,5.59,2.66,10.7,6.62,12.72,2.37,1.21,4.97,1.21,7.33,0,3.96-2.02,6.62-7.14,6.62-12.72,0-7.52-4.62-13.64-10.29-13.64Z"/>
  <path class="cls-2" d="M51.54,64.74H1.89c-1.04,0-1.89-.85-1.89-1.89v-10.07c0-6.56,5.32-11.89,11.85-11.89h10.34c1.04,0,1.89.85,1.89,1.89v.5c0,.75.31,1.45.86,1.96.56.51,1.28.75,2.04.67,1.33-.13,2.37-1.37,2.37-2.83v-.3c0-1.05.85-1.89,1.89-1.89h10.34c6.54,0,11.85,5.33,11.85,11.89v10.07c0,1.05-.85,1.89-1.89,1.89ZM3.78,60.95h45.88v-8.17c0-4.47-3.62-8.1-8.08-8.1h-8.64c-.65,2.67-2.88,4.75-5.6,5.01-1.8.17-3.6-.42-4.94-1.64-.99-.9-1.66-2.08-1.95-3.37h-8.6c-4.45,0-8.08,3.64-8.08,8.1v8.17Z"/>
  <path class="cls-2" d="M26.71,49.72c-3.54,0-6.41-2.89-6.41-6.43v-8.1c0-.66.34-1.27.9-1.62.56-.34,1.26-.37,1.84-.07,2.37,1.21,4.97,1.21,7.33,0,.59-.3,1.28-.27,1.84.07.56.35.9.96.9,1.62v8.1c0,3.55-2.88,6.43-6.41,6.43ZM24.08,37.89v5.4c0,1.46,1.18,2.64,2.64,2.64s2.64-1.19,2.64-2.64v-5.4c-1.73.41-3.54.41-5.27,0Z"/>
  <path class="cls-1" d="M68.05,125.99c-.5,0-1.01-.2-1.38-.6-.71-.76-.67-1.96.09-2.68l5.43-5.09-5.43-5.09c-.76-.72-.8-1.91-.09-2.68.71-.77,1.91-.81,2.67-.09l6.9,6.48c.38.36.6.86.6,1.38s-.22,1.02-.6,1.38l-6.9,6.47c-.36.34-.83.51-1.29.51Z"/>
  <path class="cls-1" d="M51.35,26.66c-.43,0-.85-.14-1.21-.44l-6.73-5.61c-.43-.36-.68-.89-.68-1.46s.25-1.1.68-1.46l6.73-5.62c.8-.67,1.99-.56,2.66.25.67.8.56,2-.24,2.67l-4.99,4.16,4.99,4.16c.8.67.91,1.86.24,2.67-.37.45-.91.68-1.45.68Z"/>
  <path class="cls-1" d="M103.06,67.77c-.48,0-.97-.19-1.34-.55l-6.03-6.05c-.74-.74-.74-1.94,0-2.68.74-.74,1.93-.74,2.67,0l4.7,4.71,4.7-4.71c.74-.74,1.93-.74,2.67,0,.74.74.74,1.94,0,2.68l-6.03,6.05c-.37.37-.85.55-1.34.55Z"/>
  <path class="cls-2" d="M103.28,100.11c-1.85,0-3.66-.45-5.38-1.33-5.28-2.7-8.69-9.02-8.69-16.1,0-9.61,6.31-17.43,14.07-17.43s14.07,7.82,14.07,17.43c0,7.08-3.41,13.4-8.69,16.1-1.72.88-3.53,1.33-5.38,1.33ZM103.28,69.05c-5.68,0-10.29,6.12-10.29,13.64,0,5.59,2.66,10.7,6.63,12.72,2.37,1.21,4.96,1.21,7.33,0,3.96-2.02,6.62-7.14,6.62-12.72,0-7.52-4.62-13.64-10.29-13.64Z"/>
  <path class="cls-2" d="M128.11,126.66h-49.65c-1.04,0-1.89-.85-1.89-1.89v-10.07c0-6.56,5.32-11.89,11.85-11.89h10.34c1.04,0,1.89.85,1.89,1.89v.5c0,.75.31,1.45.86,1.96.56.51,1.28.75,2.04.67,1.33-.13,2.37-1.37,2.37-2.83v-.3c0-1.05.85-1.89,1.89-1.89h10.34c6.54,0,11.85,5.33,11.85,11.89v10.07c0,1.05-.85,1.89-1.89,1.89ZM80.35,122.87h45.88v-8.17c0-4.47-3.62-8.1-8.08-8.1h-8.64c-.65,2.67-2.88,4.75-5.6,5.01-1.8.17-3.6-.43-4.94-1.64-.99-.9-1.66-2.08-1.95-3.37h-8.6c-4.45,0-8.08,3.64-8.08,8.1v8.17Z"/>
  <path class="cls-2" d="M103.28,111.63c-3.54,0-6.41-2.89-6.41-6.43v-8.1c0-.66.34-1.27.9-1.62.56-.34,1.26-.37,1.84-.07,2.37,1.21,4.96,1.21,7.33,0,.59-.3,1.28-.27,1.84.07.56.35.9.96.9,1.62v8.1c0,3.55-2.88,6.43-6.41,6.43ZM100.65,99.8v5.4c0,1.46,1.18,2.64,2.64,2.64s2.64-1.19,2.64-2.64v-5.4c-1.73.41-3.54.41-5.27,0Z"/>
</svg>