<?xml version="1.0" encoding="UTF-8"?>
<svg id="_레이어_1" data-name="레이어 1" xmlns="http://www.w3.org/2000/svg" viewBox="0 0 130 130">
  <defs>
    <style>
      .cls-1 {
        fill: #0475f0;
      }

      .cls-1, .cls-2 {
        stroke-width: 0px;
      }

      .cls-2 {
        fill: #fff;
      }
    </style>
  </defs>
  <path class="cls-2" d="M65.01,37.17c-1.03,0-1.86-.84-1.86-1.87v-14.83c0-1.03.83-1.87,1.86-1.87s1.86.84,1.86,1.87v14.83c0,1.03-.83,1.87-1.86,1.87Z"/>
  <path class="cls-1" d="M64.94,20.97c-4.73,0-8.57-3.86-8.57-8.61s3.85-8.61,8.57-8.61,8.57,3.86,8.57,8.61-3.85,8.61-8.57,8.61ZM64.94,7.49c-2.67,0-4.84,2.18-4.84,4.87s2.17,4.87,4.84,4.87,4.84-2.18,4.84-4.87-2.17-4.87-4.84-4.87Z"/>
  <path class="cls-2" d="M65.01,112.27c-1.03,0-1.86-.84-1.86-1.87v-14.83c0-1.03.83-1.87,1.86-1.87s1.86.84,1.86,1.87v14.83c0,1.03-.83,1.87-1.86,1.87Z"/>
  <path class="cls-1" d="M64.94,127.13c-4.73,0-8.57-3.86-8.57-8.61s3.85-8.61,8.57-8.61,8.57,3.86,8.57,8.61-3.85,8.61-8.57,8.61ZM64.94,113.65c-2.67,0-4.84,2.18-4.84,4.87s2.17,4.87,4.84,4.87,4.84-2.18,4.84-4.87-2.17-4.87-4.84-4.87Z"/>
  <path class="cls-2" d="M109.71,67.37h-14.77c-1.03,0-1.86-.84-1.86-1.87s.83-1.87,1.86-1.87h14.77c1.03,0,1.86.84,1.86,1.87s-.83,1.87-1.86,1.87Z"/>
  <path class="cls-1" d="M117.79,74.05c-4.73,0-8.57-3.86-8.57-8.61s3.85-8.61,8.57-8.61,8.57,3.86,8.57,8.61-3.85,8.61-8.57,8.61ZM117.79,60.57c-2.67,0-4.84,2.18-4.84,4.87s2.17,4.87,4.84,4.87,4.84-2.18,4.84-4.87-2.17-4.87-4.84-4.87Z"/>
  <path class="cls-2" d="M34.94,67.37h-14.77c-1.03,0-1.86-.84-1.86-1.87s.83-1.87,1.86-1.87h14.77c1.03,0,1.86.84,1.86,1.87s-.83,1.87-1.86,1.87Z"/>
  <path class="cls-1" d="M12.09,74.05c-4.73,0-8.57-3.86-8.57-8.61s3.85-8.61,8.57-8.61,8.57,3.86,8.57,8.61-3.85,8.61-8.57,8.61ZM12.09,60.57c-2.67,0-4.84,2.18-4.84,4.87s2.17,4.87,4.84,4.87,4.84-2.18,4.84-4.87-2.17-4.87-4.84-4.87Z"/>
  <path class="cls-1" d="M64.64,71.67h0c-.66,0-1.27-.35-1.6-.91l-4.08-6.88c-.53-.89-.24-2.04.65-2.57.89-.53,2.03-.24,2.56.65l2.48,4.18,4.74-7.97c.53-.89,1.67-1.18,2.56-.65.88.53,1.17,1.68.64,2.57l-6.34,10.66c-.34.57-.94.91-1.6.91Z"/>
  <path class="cls-2" d="M79.06,81.16h-27.62c-1.03,0-1.86-.84-1.86-1.87v-27.74c0-1.03.83-1.87,1.86-1.87h27.62c1.03,0,1.86.84,1.86,1.87v27.74c0,1.03-.83,1.87-1.86,1.87ZM53.3,77.42h23.89v-24h-23.89v24Z"/>
  <path class="cls-2" d="M94.32,96.7h-58.54c-1.03,0-1.86-.84-1.86-1.87v-58.8c0-1.03.83-1.87,1.86-1.87h58.54c1.03,0,1.86.84,1.86,1.87v58.8c0,1.03-.83,1.87-1.86,1.87ZM37.64,92.95h54.82v-55.06h-54.82v55.06Z"/>
  <path class="cls-2" d="M22.74,24.71H1.86c-1.03,0-1.86-.84-1.86-1.87V1.87C0,.84.83,0,1.86,0h20.87c1.03,0,1.86.84,1.86,1.87v20.96c0,1.03-.83,1.87-1.86,1.87ZM3.73,20.96h17.14V3.75H3.73v17.22Z"/>
  <path class="cls-2" d="M128.12,24.71h-20.87c-1.03,0-1.86-.84-1.86-1.87V1.87c0-1.03.83-1.87,1.86-1.87h20.87c1.03,0,1.86.84,1.86,1.87v20.96c0,1.03-.83,1.87-1.86,1.87ZM109.12,20.96h17.14V3.75h-17.14v17.22Z"/>
  <path class="cls-2" d="M22.75,130H1.88c-1.03,0-1.86-.84-1.86-1.87v-20.96c0-1.03.83-1.87,1.86-1.87h20.87c1.03,0,1.86.84,1.86,1.87v20.96c0,1.03-.83,1.87-1.86,1.87ZM3.74,126.25h17.14v-17.22H3.74v17.22Z"/>
  <path class="cls-2" d="M128.14,130h-20.87c-1.03,0-1.86-.84-1.86-1.87v-20.96c0-1.03.83-1.87,1.86-1.87h20.87c1.03,0,1.86.84,1.86,1.87v20.96c0,1.03-.83,1.87-1.86,1.87ZM109.13,126.25h17.14v-17.22h-17.14v17.22Z"/>
  <path class="cls-2" d="M94.8,37.17c-.48,0-.96-.18-1.32-.55-.73-.73-.72-1.92,0-2.65l12.45-12.46c.73-.73,1.91-.73,2.64,0,.73.73.72,1.92,0,2.65l-12.45,12.46c-.36.36-.84.55-1.32.55Z"/>
  <path class="cls-2" d="M107.15,109.48c-.48,0-.95-.18-1.32-.55l-12.45-12.46c-.73-.73-.73-1.92,0-2.65.73-.73,1.91-.74,2.64,0l12.45,12.46c.73.73.73,1.92,0,2.65-.36.37-.84.55-1.32.55Z"/>
  <path class="cls-2" d="M35,37.17c-.48,0-.95-.18-1.32-.55l-12.45-12.46c-.73-.73-.73-1.92,0-2.65.73-.73,1.91-.74,2.64,0l12.45,12.46c.73.73.73,1.92,0,2.65-.36.37-.84.55-1.32.55Z"/>
  <path class="cls-2" d="M22.65,109.48c-.48,0-.96-.18-1.32-.55-.73-.73-.72-1.92,0-2.65l12.45-12.46c.73-.73,1.91-.73,2.64,0,.73.73.72,1.92,0,2.65l-12.45,12.46c-.36.36-.84.55-1.32.55Z"/>
</svg>